<?xml version="1.0" encoding="UTF-8" standalone="no"?>
<!-- Created with Inkscape (http://www.inkscape.org/) -->

<svg
   xmlns:dc="http://purl.org/dc/elements/1.1/"
   xmlns:cc="http://creativecommons.org/ns#"
   xmlns:rdf="http://www.w3.org/1999/02/22-rdf-syntax-ns#"
   xmlns:svg="http://www.w3.org/2000/svg"
   xmlns="http://www.w3.org/2000/svg"
   xmlns:sodipodi="http://sodipodi.sourceforge.net/DTD/sodipodi-0.dtd"
   xmlns:inkscape="http://www.inkscape.org/namespaces/inkscape"
   width="450px"
   height="75px"
   viewBox="0 0 450 75"
   version="1.1"
   id="SVGRoot"
   inkscape:version="0.92.4 (5da689c313, 2019-01-14)"
   sodipodi:docname="logo.svg">
  <defs
     id="defs3943" />
  <sodipodi:namedview
     id="base"
     pagecolor="#ffffff"
     bordercolor="#666666"
     borderopacity="1.0"
     inkscape:pageopacity="0.0"
     inkscape:pageshadow="2"
     inkscape:zoom="1.1377778"
     inkscape:cx="225"
     inkscape:cy="37.5"
     inkscape:document-units="px"
     inkscape:current-layer="layer1"
     showgrid="false"
     inkscape:window-width="1920"
     inkscape:window-height="991"
     inkscape:window-x="-9"
     inkscape:window-y="-9"
     inkscape:window-maximized="1" />
  <metadata
     id="metadata3946">
    <rdf:RDF>
      <cc:Work
         rdf:about="">
        <dc:format>image/svg+xml</dc:format>
        <dc:type
           rdf:resource="http://purl.org/dc/dcmitype/StillImage" />
        <dc:title></dc:title>
      </cc:Work>
    </rdf:RDF>
  </metadata>
  <g
     inkscape:label="Layer 1"
     inkscape:groupmode="layer"
     id="layer1">
    <g
       transform="matrix(2.7117344,0,0,2.7117344,28.62941,-346.42679)"
       id="g4612"
       style="fill:#000000">
      <path
         transform="scale(0.26458333)"
         inkscape:connector-curvature="0"
         id="path4531"
         d="M 31.650826,573.13615 C 20.689483,570.81735 11.544851,564.70229 6.0291835,556.00282 2.8613194,551.00637 2.0541753,549.22554 0.77281241,544.4055 -2.0768241,533.68618 -0.35024085,522.27869 5.5551184,512.80894 10.522356,504.84356 18.348234,498.93138 27.862753,495.95631 c 4.073981,-1.27388 5.253246,-1.4183 11.364217,-1.39174 9.428764,0.041 14.907725,1.65336 22.286091,6.55848 20.031643,13.31701 23.337873,42.40426 6.836677,60.14708 -9.119354,9.80554 -23.879258,14.57792 -36.698912,11.86602 z m 16.489087,-10.75671 c 21.137383,-6.73439 27.922188,-34.02233 12.291911,-49.43703 -3.861813,-3.80855 -7.429929,-6.05224 -12.20004,-7.67156 -4.551239,-1.54503 -13.45839,-1.54503 -18.009628,0 -4.921499,1.67072 -8.6088,3.99717 -12.272304,7.74305 -6.246673,6.38712 -8.2466664,11.46362 -8.2329819,20.89741 0.00718,4.95183 0.2182713,6.67927 1.1535549,9.4401 1.798461,5.30881 5.952368,11.05122 10.426337,14.41352 7.483402,5.62395 18.000261,7.43186 26.843151,4.61451 z"
         style="fill:#000000;fill-opacity:1;stroke:none;stroke-width:1.90894973;stroke-miterlimit:4;stroke-dasharray:none;stroke-opacity:1" />
      <path
         transform="scale(0.26458333)"
         inkscape:connector-curvature="0"
         id="path4533"
         d="m 36.827857,554.53747 c -0.355072,-0.14328 -0.631345,-1.12515 -0.631345,-2.2438 0,-2.15293 -0.08685,-2.22186 -4.426647,-3.51324 -2.979597,-0.88664 -3.308039,-1.41781 -2.604436,-4.21207 0.654321,-2.59855 1.106929,-2.76484 4.3811,-1.60964 1.856462,0.65499 4.235268,0.98131 6.216548,0.85275 1.146613,-0.0744 2.999427,-1.9574 2.999427,-3.0483 0,-1.44254 -1.961169,-3.01008 -5.825002,-4.65585 -5.572773,-2.37369 -7.812058,-5.04197 -7.812058,-9.30865 0,-3.09114 1.44944,-5.40138 4.463373,-7.11411 2.914164,-1.65603 3.617848,-2.49339 3.617848,-4.30507 0,-1.34184 0.121473,-1.4187 2.242354,-1.4187 2.22093,0 2.243852,0.0179 2.399112,1.86928 0.153337,1.82848 0.226998,1.8899 3.375129,2.81414 l 3.218371,0.94487 -0.275442,2.05357 c -0.410634,3.06151 -1.261236,3.69696 -3.626045,2.70888 -3.889121,-1.62498 -8.343632,-0.69929 -8.343632,1.73389 0,1.7213 0.874373,2.45894 5.555839,4.68702 4.4073,2.09759 5.665238,3.16113 7.126292,6.02503 2.112842,4.14152 0.319879,8.81328 -4.348373,11.33016 -3.038734,1.63833 -3.265351,1.9349 -3.275261,4.28632 -0.0062,1.47275 -0.232141,1.89527 -1.144156,2.13968 -1.311557,0.35148 -2.384974,0.3462 -3.282996,-0.0162 z"
         style="fill:#000000;fill-opacity:1;stroke:none;stroke-width:1.90894973;stroke-miterlimit:4;stroke-dasharray:none;stroke-opacity:1" />
      <path
         transform="scale(0.26458333)"
         inkscape:connector-curvature="0"
         id="path4535"
         d="m 81.344572,512.3193 c -0.734786,-1.45841 -1.761394,-3.25495 -2.281352,-3.99231 -0.519957,-0.73737 -0.945377,-1.58968 -0.945377,-1.89404 0,-0.8288 50.082027,-0.77694 50.911687,0.0527 0.79829,0.79829 0.79829,7.0809 0,7.87919 -0.45356,0.45356 -6.36207,0.6061 -23.47754,0.6061 H 82.680546 Z"
         style="fill:#000000;fill-opacity:1;stroke:none;stroke-width:1.90894973;stroke-miterlimit:4;stroke-dasharray:none;stroke-opacity:1" />
      <path
         transform="scale(0.26458333)"
         inkscape:connector-curvature="0"
         id="path4537"
         d="m 86.174932,526.46143 c -0.01327,-0.0694 -0.550548,-2.11501 -1.193947,-4.54569 l -1.169816,-4.41941 h 24.601711 c 28.35404,0 26.27351,-0.38511 26.27351,4.86325 0,1.67229 -0.27003,3.28596 -0.6061,3.62203 -0.45414,0.45414 -6.53232,0.60609 -24.24366,0.60609 -13.000661,0 -23.648426,-0.0568 -23.661698,-0.12627 z"
         style="fill:#000000;fill-opacity:1;stroke:none;stroke-width:1.90894973;stroke-miterlimit:4;stroke-dasharray:none;stroke-opacity:1" />
      <path
         transform="scale(0.26458333)"
         inkscape:connector-curvature="0"
         id="path4539"
         d="m 86.704139,533.91131 v -4.79823 h 20.343211 c 23.88517,0 22.58827,-0.27549 22.58827,4.79823 0,5.07371 1.2969,4.79822 -22.58827,4.79822 H 86.704139 Z"
         style="fill:#000000;fill-opacity:1;stroke:none;stroke-width:1.90894973;stroke-miterlimit:4;stroke-dasharray:none;stroke-opacity:1" />
      <path
         transform="scale(0.26458333)"
         inkscape:connector-curvature="0"
         id="path4541"
         d="m 84.338358,549.18986 c 0.152548,-0.62503 0.690434,-2.72741 1.195301,-4.67195 l 0.917942,-3.53554 h 16.812589 c 14.39511,0 16.88139,0.10894 17.29112,0.75762 0.2632,0.41669 0.48203,2.28379 0.48628,4.14911 0.006,2.84086 -0.15088,3.47638 -0.96921,3.91434 -0.61957,0.33158 -7.38499,0.52284 -18.49417,0.52284 H 84.060997 Z"
         style="fill:#000000;fill-opacity:1;stroke:none;stroke-width:1.90894973;stroke-miterlimit:4;stroke-dasharray:none;stroke-opacity:1" />
      <path
         transform="scale(0.26458333)"
         inkscape:connector-curvature="0"
         id="path4543"
         d="m 78.117843,561.62009 c 0,-0.17762 0.629639,-1.37086 1.399198,-2.65165 0.769559,-1.28079 1.844024,-3.18102 2.387699,-4.22274 l 0.988502,-1.89403 h 20.557198 c 23.5929,0 22.14457,-0.29455 22.14457,4.50348 0,4.89444 1.64789,4.58789 -24.66224,4.58789 -12.548208,0 -22.814927,-0.14533 -22.814927,-0.32295 z"
         style="fill:#000000;fill-opacity:1;stroke:none;stroke-width:1.90894973;stroke-miterlimit:4;stroke-dasharray:none;stroke-opacity:1" />
      <path
         transform="scale(0.26458333)"
         inkscape:connector-curvature="0"
         id="path4545"
         d="m 66.501088,573.12341 c 0,-0.24001 0.852317,-1.0273 1.894036,-1.74952 1.04172,-0.72223 3.136336,-2.57141 4.654702,-4.1093 l 2.760667,-2.79617 h 19.763216 c 22.772511,0 21.435011,-0.29222 21.435011,4.68309 0,4.66683 1.54698,4.40828 -26.376353,4.40828 -13.272203,0 -24.131279,-0.19637 -24.131279,-0.43638 z"
         style="fill:#000000;fill-opacity:1;stroke:none;stroke-width:1.90894973;stroke-miterlimit:4;stroke-dasharray:none;stroke-opacity:1" />
    </g>
    <g
       transform="matrix(2.7117344,0,0,2.7117344,28.62941,-346.42679)"
       id="g4602"
       style="fill:#000000">
      <path
         transform="scale(0.26458333)"
         inkscape:connector-curvature="0"
         id="path4557"
         d="m 150.73857,535.24237 c -0.0621,-0.1618 -0.0576,-10.50423 0.01,-22.98319 0.0953,-17.60608 0.17184,-22.7208 0.34171,-22.83091 0.1204,-0.0781 5.494,-0.12177 11.94133,-0.0972 10.84582,0.0414 11.74807,0.0679 12.06529,0.35512 0.18858,0.17071 0.61885,0.36344 0.95615,0.42829 0.33731,0.0648 0.82658,0.2667 1.08728,0.44855 0.2607,0.18185 0.58213,0.3321 0.71429,0.33389 0.43129,0.006 2.26829,1.3054 3.27685,2.31818 0.95883,0.96284 1.09105,1.12115 1.41679,1.69643 0.16684,0.29464 0.49712,0.85714 0.73395,1.25 1.3265,2.20035 1.74833,4.10217 1.64364,7.41028 -0.0634,2.00428 -0.14598,2.57688 -0.48918,3.39329 -0.73994,1.76013 -1.44473,3.20166 -1.61759,3.30849 -0.30194,0.18661 0.2939,1.03576 1.43749,2.04865 0.60989,0.54018 1.37444,1.38393 1.699,1.875 0.73574,1.11317 1.51434,2.57644 1.51434,2.84598 0,0.11193 0.15191,0.50147 0.33758,0.86566 0.68632,1.34616 0.64917,6.7235 -0.0558,8.07407 -0.15379,0.29465 -0.28014,0.65625 -0.28076,0.80358 -0.003,0.59199 -1.91898,3.65489 -2.94995,4.71465 -0.92674,0.95261 -2.17906,1.84022 -3.30111,2.33975 -0.34375,0.15303 -0.83247,0.39281 -1.08604,0.53284 -0.25356,0.14003 -0.77588,0.32973 -1.16071,0.42156 -0.38482,0.0918 -1.17862,0.29615 -1.76399,0.45407 -0.89285,0.24087 -2.19541,0.28713 -8.08596,0.28713 -7.87781,0 -7.51373,0.0692 -6.84958,-1.30272 0.20617,-0.42588 0.37538,-0.88958 0.37603,-1.03045 6.4e-4,-0.14087 0.16083,-0.49719 0.35596,-0.79183 0.19514,-0.29465 0.35532,-0.65935 0.35597,-0.81046 6.4e-4,-0.15111 0.16386,-0.59308 0.36271,-0.98214 0.19884,-0.38907 0.44018,-0.99825 0.53632,-1.35374 0.0961,-0.35548 0.33558,-0.85074 0.5321,-1.10058 l 0.35731,-0.45425 5.4903,-0.0702 c 5.31645,-0.068 5.51856,-0.0835 6.38315,-0.48998 1.97308,-0.92755 3.01133,-2.19497 3.30524,-4.03479 0.40376,-2.52742 -0.48607,-4.627 -2.56873,-6.06096 l -1.03741,-0.71428 -8.83957,-0.0526 c -7.0182,-0.0417 -8.89679,-0.005 -9.11723,0.17787 -0.24766,0.20554 -0.26376,1.22046 -0.14905,9.39394 0.0982,6.99782 0.0782,9.2242 -0.0845,9.42034 -0.17297,0.20842 -0.91706,0.25684 -3.9469,0.25684 -3.30265,0 -3.74677,-0.034 -3.84662,-0.29419 z m 23.00038,-27.38439 c 2.45862,-1.33411 3.26701,-2.32657 3.45764,-4.2449 0.26774,-2.69438 -0.48995,-4.47018 -2.49368,-5.84438 l -1.04151,-0.71429 -7.40887,-0.0556 c -5.96358,-0.0447 -7.43784,-0.01 -7.55735,0.17857 -0.17906,0.28236 -0.20697,10.92515 -0.0291,11.103 0.0687,0.0687 3.30303,0.10214 7.1875,0.0744 l 7.06267,-0.0504 z"
         style="fill:#000000;fill-opacity:1;stroke:none;stroke-width:0.67491567;stroke-miterlimit:4;stroke-dasharray:none;stroke-opacity:1" />
      <path
         transform="scale(0.26458333)"
         inkscape:connector-curvature="0"
         id="path4559"
         d="m 204.52338,536.25559 c -1.75147,-0.18817 -3.84545,-0.99057 -5.76294,-2.20833 -1.2317,-0.78224 -3.8241,-3.5161 -4.35874,-4.59659 -0.91892,-1.85713 -1.2029,-2.58287 -1.46168,-3.73554 -0.14332,-0.6384 -0.34602,-1.48215 -0.45043,-1.875 -0.20335,-0.76514 -0.2878,-20.36271 -0.09,-20.87826 0.0936,-0.24382 0.57148,-0.28246 3.49388,-0.28246 1.99221,0 3.52764,0.0761 3.73089,0.18486 0.33315,0.17829 0.34564,0.45863 0.35204,7.90178 0.004,4.24431 0.0755,8.72301 0.15966,9.95266 0.14011,2.04687 0.19937,2.31084 0.70159,3.125 0.3017,0.4891 0.67708,1.11644 0.83417,1.39409 0.4456,0.78757 2.50025,2.42941 3.05147,2.43836 0.10997,0.002 0.70303,0.16397 1.31791,0.3604 1.41232,0.45118 2.34933,0.45118 3.66071,0 0.57093,-0.19643 1.15778,-0.35715 1.30412,-0.35715 0.45502,0 2.13039,-1.22012 2.76333,-2.01246 1.12885,-1.41312 1.55278,-2.35069 1.73065,-3.82754 0.0922,-0.76568 0.20312,-5.2844 0.24647,-10.0416 0.0735,-8.06291 0.10055,-8.66536 0.39946,-8.88393 0.44761,-0.3273 6.73396,-0.33742 6.99327,-0.0113 0.27908,0.35104 0.48941,32.04556 0.21486,32.37638 -0.17268,0.20806 -0.87577,0.25755 -3.65942,0.25755 -1.89512,0 -3.57278,-0.0488 -3.72813,-0.1084 -0.16543,-0.0635 -0.28247,-0.31762 -0.28247,-0.61337 0,-0.65988 -0.29473,-1.42109 -0.55024,-1.42109 -0.11106,0 -0.53146,0.26116 -0.9342,0.58036 -0.40275,0.31919 -1.01699,0.71926 -1.36499,0.88904 -0.34799,0.16977 -0.75325,0.38137 -0.90057,0.47023 -0.14732,0.0888 -0.75,0.34953 -1.33928,0.57929 -1.18107,0.46049 -3.66919,0.60104 -6.07143,0.34297 z"
         style="fill:#000000;fill-opacity:1;stroke:none;stroke-width:0.67491567;stroke-miterlimit:4;stroke-dasharray:none;stroke-opacity:1" />
      <path
         transform="scale(0.26458333)"
         inkscape:connector-curvature="0"
         id="path4561"
         d="m 241.66624,536.14112 c -0.19643,-0.0497 -1.04018,-0.25062 -1.875,-0.4464 -0.83483,-0.19578 -1.67858,-0.42839 -1.875,-0.51691 -1.641,-0.73957 -2.49207,-1.17761 -3.19909,-1.64658 -0.59366,-0.39377 -2.86595,-2.34358 -3.01752,-2.58927 -0.0799,-0.12943 -0.55126,-0.72329 -1.04758,-1.31968 -0.93886,-1.12815 -2.46796,-3.90704 -2.46796,-4.48511 0,-0.18295 -0.13399,-0.58981 -0.29775,-0.90413 -0.70899,-1.36079 -0.79549,-8.00541 -0.12948,-9.94648 0.15164,-0.44197 0.37008,-1.1735 0.4854,-1.62563 0.11533,-0.45213 0.30175,-0.93427 0.41426,-1.07143 0.11251,-0.13716 0.33517,-0.53062 0.49479,-0.87437 0.62614,-1.3484 1.92105,-3.11799 3.07078,-4.19643 1.58505,-1.48677 2.07482,-1.90214 2.43923,-2.06871 0.21878,-0.1 0.7192,-0.37799 1.11206,-0.61777 1.01373,-0.61872 1.81167,-0.97424 2.18667,-0.97424 0.17773,0 0.49795,-0.12243 0.7116,-0.27208 0.2274,-0.15928 1.27894,-0.37611 2.53616,-0.52296 1.18123,-0.13798 2.21806,-0.29437 2.30407,-0.34753 0.29267,-0.18088 5.32875,0.54753 5.48024,0.79265 0.0494,0.0799 0.39002,0.2432 0.75696,0.36287 0.36694,0.11966 0.8588,0.36659 1.09302,0.54874 0.23423,0.18214 0.56329,0.33117 0.73126,0.33117 0.16796,0 0.44418,0.15337 0.61382,0.34083 0.16965,0.18745 0.54899,0.44046 0.84299,0.56224 1.01544,0.42061 1.016,0.4172 1.13383,-6.9745 0.0587,-3.68303 0.14843,-7.03794 0.19936,-7.45535 l 0.0926,-0.75893 h 3.53873 3.53874 l 0.12327,17.36607 c 0.0678,9.55134 0.0977,19.89732 0.0664,22.99107 l -0.0569,5.625 -3.53585,0.0485 c -1.94471,0.0266 -3.65771,-0.0198 -3.80666,-0.10312 -0.23608,-0.13211 -0.27501,-1.36401 -0.30345,-9.60201 l -0.0326,-9.45046 -0.52027,-1.06111 c -1.01459,-2.06926 -2.10088,-3.32858 -4.00851,-4.64701 -0.87579,-0.60528 -1.43243,-0.82276 -3.50693,-1.37013 -0.93117,-0.2457 -3.42697,-0.0758 -4.10877,0.2797 -0.29375,0.15317 -0.6948,0.28045 -0.89123,0.28284 -0.326,0.004 -1.33815,0.59419 -2.37195,1.38316 -0.9564,0.72989 -2.25076,2.14306 -2.49302,2.72183 -0.14388,0.34375 -0.35366,0.73722 -0.46617,0.87438 -0.19444,0.23702 -0.44589,1.08946 -0.84825,2.87562 -0.45522,2.02082 0.57708,5.58507 2.08165,7.18735 1.42638,1.51901 2.57694,2.37232 4.15147,3.07893 1.04063,0.467 1.15779,0.48021 3.54694,0.40001 1.35892,-0.0456 2.641,-0.14044 2.84907,-0.21073 0.31743,-0.10723 0.4514,0.003 0.83252,0.68489 0.24982,0.44697 0.55345,1.11652 0.67475,1.4879 0.12129,0.37137 0.36942,0.95528 0.5514,1.29758 0.18198,0.3423 0.33088,0.72428 0.33088,0.84886 0,0.12458 0.16071,0.52636 0.35714,0.89286 0.49506,0.92368 0.45089,1.20605 -0.25374,1.62179 -1.24027,0.73178 -3.09328,1.13221 -5.54983,1.1993 -1.27679,0.0349 -2.48215,0.0227 -2.67857,-0.027 z"
         style="fill:#000000;fill-opacity:1;stroke:none;stroke-width:0.67491567;stroke-miterlimit:4;stroke-dasharray:none;stroke-opacity:1" />
      <path
         transform="scale(0.26458333)"
         inkscape:connector-curvature="0"
         id="path4563"
         d="m 281.93409,549.54609 c -0.54018,-0.12745 -1.46428,-0.28452 -2.05357,-0.34904 -1.54476,-0.16914 -5.3203,-1.50264 -5.80357,-2.0498 -0.0491,-0.0556 -0.31426,-0.24433 -0.58924,-0.4194 -0.38902,-0.24768 -0.47347,-0.40525 -0.38063,-0.71016 0.0656,-0.21552 1.23276,-1.49676 2.59363,-2.84721 2.44869,-2.42994 2.98223,-2.77793 3.4863,-2.27387 0.28149,0.2815 3.2865,1.06382 4.0958,1.0663 0.39804,0.001 1.44431,-0.18552 2.32504,-0.41497 2.32933,-0.60685 4.04201,-1.83907 5.45678,-3.92597 0.2782,-0.41037 0.50728,-0.82016 0.50907,-0.91064 0.002,-0.0905 0.12346,-0.29734 0.27039,-0.45969 0.14692,-0.16236 0.44397,-0.93208 0.6601,-1.71049 0.37164,-1.33854 0.39653,-1.83819 0.45885,-9.21191 0.064,-7.57235 0.0553,-7.81989 -0.30295,-8.60627 -0.20287,-0.44532 -0.36885,-0.97055 -0.36885,-1.16717 0,-0.38363 -0.69532,-1.81314 -1.2061,-2.47961 -0.65627,-0.85632 -1.43321,-1.64678 -1.61862,-1.64678 -0.10629,0 -0.25751,-0.10965 -0.33605,-0.24366 -0.0785,-0.13402 -0.42406,-0.3863 -0.76781,-0.56063 -0.34375,-0.17433 -0.66517,-0.37727 -0.71428,-0.45097 -0.0491,-0.0737 -0.69801,-0.34373 -1.442,-0.60008 -1.77763,-0.6125 -4.50638,-0.66628 -5.726,-0.11287 -0.42814,0.19428 -0.96002,0.35499 -1.18196,0.35715 -0.22195,0.002 -0.54114,0.16463 -0.70933,0.36106 -0.16819,0.19643 -0.40231,0.35715 -0.52027,0.35715 -0.11796,0 -0.45322,0.20089 -0.74502,0.44642 -0.2918,0.24554 -0.61228,0.44643 -0.71217,0.44643 -0.22508,0 -2.17754,2.57102 -2.17754,2.8674 0,0.1185 -0.15928,0.47317 -0.35395,0.78816 -0.58399,0.9449 -0.80694,3.05992 -0.54184,5.14011 0.22212,1.74292 0.5768,2.71195 1.51924,4.15076 0.47496,0.72512 2.23809,2.38684 2.68012,2.52599 0.19643,0.0618 0.54879,0.26209 0.78301,0.445 0.23423,0.18292 0.53998,0.33258 0.67944,0.33258 0.13947,0 0.60369,0.1595 1.0316,0.35443 1.03267,0.47044 2.89517,0.62155 4.6347,0.37603 1.34314,-0.18958 1.43495,-0.18038 1.82109,0.18238 0.22365,0.21011 0.45965,0.63308 0.52445,0.93994 0.0648,0.30687 0.26986,0.80849 0.45569,1.11473 0.18584,0.30623 0.33788,0.67596 0.33788,0.82162 0,0.14565 0.2105,0.65849 0.46777,1.13963 0.30702,0.57417 0.47578,1.18156 0.49108,1.76738 l 0.0233,0.89256 -1.51785,0.31978 c -2.95735,0.62305 -4.33075,0.74568 -5.8356,0.52108 -2.10007,-0.31344 -3.81206,-0.7269 -4.62257,-1.11639 -0.39931,-0.19188 -0.81762,-0.34888 -0.92957,-0.34888 -0.11195,0 -0.49958,-0.20089 -0.86139,-0.44643 -0.36182,-0.24554 -0.75858,-0.44643 -0.88169,-0.44643 -0.1231,0 -0.27008,-0.12053 -0.32662,-0.26786 -0.0565,-0.14732 -0.19398,-0.26785 -0.30545,-0.26785 -0.11147,0 -0.6833,-0.40161 -1.27074,-0.89245 -0.58743,-0.49085 -1.16525,-0.95291 -1.28405,-1.02679 -0.30785,-0.19146 -2.64068,-3.06622 -3.00719,-3.70576 -0.16885,-0.29465 -0.39889,-0.73661 -0.51119,-0.98215 -0.11231,-0.24553 -0.31758,-0.66294 -0.45615,-0.92756 -0.13858,-0.26462 -0.3379,-0.94604 -0.44294,-1.51425 -0.10504,-0.56822 -0.31915,-1.27582 -0.4758,-1.57244 -0.43895,-0.8312 -0.42244,-7.12496 0.0204,-7.79462 0.17081,-0.25828 0.39121,-0.97034 0.48977,-1.58235 0.0986,-0.61202 0.28998,-1.22354 0.42537,-1.35893 0.1354,-0.1354 0.30339,-0.50816 0.37332,-0.82837 0.0699,-0.3202 0.27739,-0.77383 0.46102,-1.00806 0.18363,-0.23423 0.33387,-0.52383 0.33387,-0.64357 0,-0.11973 0.18081,-0.42718 0.40179,-0.68322 0.22098,-0.25604 0.5625,-0.68885 0.75893,-0.9618 0.61022,-0.84794 3.10666,-3.26768 3.37126,-3.26768 0.13818,0 0.29353,-0.1102 0.34521,-0.24488 0.0517,-0.13469 0.32144,-0.30136 0.59946,-0.37038 0.27803,-0.069 0.66621,-0.27033 0.86264,-0.44735 0.19643,-0.17701 0.67857,-0.37789 1.07143,-0.4464 0.39286,-0.0685 0.89717,-0.24236 1.1207,-0.38635 1.10548,-0.71211 9.59676,-0.70399 10.38563,0.01 0.16655,0.15072 0.5788,0.32764 0.9161,0.39314 0.33731,0.0655 0.80492,0.26735 1.03915,0.44855 0.23423,0.1812 0.54406,0.32945 0.68851,0.32945 0.14445,0 0.50139,0.20089 0.79319,0.44643 0.2918,0.24554 0.66722,0.44643 0.83426,0.44643 0.16704,0 0.47369,0.11906 0.68144,0.26457 0.50512,0.35381 0.75751,0.0522 0.92249,-1.10251 l 0.12266,-0.85849 3.21222,-0.0442 c 1.76672,-0.0243 3.3107,0.0194 3.43105,0.0971 0.16784,0.10835 0.25189,3.53067 0.36069,14.687 0.14651,15.02268 0.0579,18.21666 -0.53773,19.38147 -0.14665,0.28678 -0.32285,0.78247 -0.39156,1.10155 -0.15093,0.70081 -1.54137,3.447 -2.01843,3.98647 -0.12394,0.14015 -0.46564,0.57625 -0.75933,0.96911 -0.50792,0.67942 -1.43681,1.67365 -2.0677,2.21313 -1.4008,1.19785 -3.94323,2.76972 -4.81555,2.97723 -0.28871,0.0687 -0.84636,0.26607 -1.23922,0.43864 -0.39286,0.17258 -1.15625,0.36727 -1.69643,0.43265 -0.54018,0.0654 -1.38393,0.1885 -1.875,0.27359 -1.77371,0.30734 -1.97903,0.31326 -2.94643,0.085 z"
         style="fill:#000000;fill-opacity:1;stroke:none;stroke-width:0.67491567;stroke-miterlimit:4;stroke-dasharray:none;stroke-opacity:1" />
      <path
         transform="scale(0.26458333)"
         inkscape:connector-curvature="0"
         id="path4565"
         d="m 319.79124,536.22358 c -2.52156,-0.19362 -5.00591,-0.9709 -7.05358,-2.20684 -0.39285,-0.23712 -0.99779,-0.58738 -1.34429,-0.77836 -0.9697,-0.53443 -4.07458,-3.65664 -4.90659,-4.93397 -0.5341,-0.81997 -1.51684,-2.76328 -1.51807,-3.00191 -6.1e-4,-0.1168 -0.12001,-0.44036 -0.26534,-0.719 -0.25803,-0.49472 -0.37909,-1.12331 -0.81383,-4.22552 -0.1875,-1.33799 -0.16845,-1.80862 0.16075,-3.97159 0.2054,-1.34956 0.48843,-2.63527 0.62895,-2.85715 0.14053,-0.22187 0.31186,-0.67319 0.38073,-1.00294 0.0689,-0.32975 0.31783,-0.88338 0.55324,-1.23028 0.23541,-0.3469 0.42803,-0.69631 0.42803,-0.77645 0,-0.31963 1.80898,-2.68575 2.85589,-3.73547 1.08765,-1.09057 2.51542,-2.1637 3.72005,-2.79605 0.7163,-0.376 1.4784,-0.7829 1.69357,-0.90422 0.21516,-0.12132 0.53623,-0.22177 0.7135,-0.22321 0.17726,-10e-4 0.6594,-0.15268 1.07143,-0.33607 0.71799,-0.31957 3.81625,-0.80174 5.12413,-0.79745 1.23212,0.004 4.5717,0.5492 5.12865,0.83721 0.31234,0.16152 0.72581,0.29367 0.91881,0.29367 0.30719,0 0.9422,0.31099 3.14655,1.54099 0.83042,0.46336 2.87055,2.16244 3.35862,2.79716 0.24216,0.31491 0.63072,0.77779 0.86347,1.02863 0.23275,0.25083 0.65674,0.81333 0.94219,1.25 0.28545,0.43666 0.65322,0.99483 0.81726,1.24037 0.41098,0.61516 1.25302,2.4892 1.25302,2.78872 0,0.13506 0.17836,0.74812 0.39636,1.36235 0.34973,0.98539 0.397,1.47841 0.40178,4.19054 0.005,2.71684 -0.0316,3.11081 -0.31338,3.39286 -0.29908,0.29935 -1.08706,0.32208 -12.73019,0.36732 -13.45351,0.0523 -12.76014,-0.003 -12.51083,0.99069 0.13238,0.52746 1.93286,2.37824 3.04143,3.1264 0.46844,0.31615 1.32474,0.77391 1.90289,1.01725 0.93383,0.39305 1.30625,0.44244 3.33599,0.44244 1.9761,0 2.37885,-0.0504 2.98082,-0.37304 1.12816,-0.60466 2.35924,-0.64442 3.60194,-0.11633 1.3726,0.58329 4.24094,1.71373 5.20569,2.05162 0.41741,0.14619 0.75893,0.37064 0.75893,0.49879 0,0.12814 -0.22,0.49443 -0.48888,0.81398 -0.57177,0.67951 -3.02147,2.66069 -3.2899,2.66069 -0.10117,0 -0.39725,0.14956 -0.65794,0.33236 -0.2607,0.18279 -0.79543,0.43434 -1.18828,0.55899 -0.39286,0.12464 -0.79465,0.28813 -0.89286,0.3633 -0.35996,0.2755 -3.07536,0.89958 -4.46429,1.02602 -0.78571,0.0715 -2.1116,0.0776 -2.94642,0.0135 z m 9.78929,-21.51611 c 0.31816,-0.56854 -1.63278,-2.93447 -3.39639,-4.11883 -1.45639,-0.97805 -4.33909,-1.61542 -5.99112,-1.32464 -1.66318,0.29274 -3.05944,0.73341 -3.69901,1.16743 -2.53801,1.72234 -4.36249,4.08047 -3.44385,4.45115 0.12277,0.0495 3.85539,0.0964 8.2947,0.10416 7.31011,0.0128 8.08697,-0.0136 8.23567,-0.27927 z"
         style="fill:#000000;fill-opacity:1;stroke:none;stroke-width:0.67491567;stroke-miterlimit:4;stroke-dasharray:none;stroke-opacity:1" />
      <path
         transform="scale(0.26458333)"
         inkscape:connector-curvature="0"
         id="path4567"
         d="m 350.33381,535.17297 c -0.53641,-0.19288 -1.12272,-0.3507 -1.3029,-0.3507 -0.18019,0 -0.91195,-0.27358 -1.62613,-0.60795 -1.02017,-0.47762 -1.55924,-0.88912 -2.51475,-1.91964 -0.66892,-0.72143 -1.3024,-1.51259 -1.40773,-1.75812 -0.10533,-0.24554 -0.32301,-0.64733 -0.48373,-0.89286 -0.29669,-0.45325 -0.77197,-1.72205 -1.07028,-2.85714 -0.18729,-0.71269 -0.23264,-23.30355 -0.0561,-27.95684 l 0.11555,-3.04611 1.17854,-0.37858 c 0.6482,-0.20822 1.49998,-0.43203 1.89283,-0.49736 0.39286,-0.0653 1.20042,-0.27739 1.79459,-0.47125 0.62244,-0.20308 1.41711,-0.32845 1.875,-0.29581 l 0.7947,0.0567 0.0893,5.92881 c 0.0542,3.59922 0.15946,5.99548 0.26786,6.09849 0.0982,0.0933 1.03205,0.19933 2.07518,0.23557 2.13162,0.074 2.41091,0.20309 2.58091,1.19257 0.0616,0.35844 0.25774,1.09367 0.43591,1.63385 0.49509,1.501 0.94264,3.41174 0.96202,4.10714 l 0.0174,0.625 -2.94151,0.0893 c -2.91566,0.0885 -2.94359,0.0932 -3.17755,0.53572 -0.18371,0.34745 -0.22439,1.59491 -0.18349,5.62683 0.0586,5.77926 0.0637,5.80401 1.39034,6.78278 0.58846,0.43415 0.69284,0.44753 3.49066,0.44753 2.5224,0 2.91871,0.0392 3.16039,0.3125 0.41808,0.47279 0.91262,2.17291 1.72714,5.9375 0.23816,1.10078 0.27324,1.55391 0.12764,1.64905 -0.11042,0.0722 -2.0088,0.12953 -4.21862,0.12749 -3.53721,-0.003 -4.13453,-0.0457 -4.99314,-0.35441 z"
         style="fill:#000000;fill-opacity:1;stroke:none;stroke-width:0.67491567;stroke-miterlimit:4;stroke-dasharray:none;stroke-opacity:1" />
      <path
         transform="scale(0.26458333)"
         inkscape:connector-curvature="0"
         id="path4569"
         d="m 362.61552,535.31677 c -0.0405,-0.12466 -0.0296,-10.51236 0.0242,-23.08379 l 0.0979,-22.85714 11.682,-0.046 c 11.26224,-0.0443 11.70819,-0.0334 12.41072,0.30203 0.40079,0.19138 0.96978,0.40365 1.26443,0.47171 0.29464,0.0681 0.66147,0.23249 0.81516,0.36539 0.1537,0.13291 0.55424,0.33743 0.89008,0.45451 0.33584,0.11707 0.69223,0.27852 0.79197,0.35876 0.0998,0.0803 0.67292,0.50657 1.27371,0.94739 1.47407,1.08156 2.60786,2.48559 3.39139,4.19973 0.15713,0.34375 0.37775,0.73662 0.49026,0.87303 0.22712,0.27537 0.74451,2.07954 1.02988,3.59126 0.41953,2.22248 -0.0946,5.57511 -1.16374,7.58928 -0.1564,0.29465 -0.28486,0.62533 -0.28547,0.73485 -5.4e-4,0.10952 -0.16983,0.41364 -0.37605,0.67581 -0.5194,0.6603 -0.34669,1.1428 0.71947,2.01009 0.83787,0.68157 1.60113,1.52833 2.4194,2.68406 0.44159,0.62371 1.33011,2.3975 1.33762,2.67034 0.003,0.11204 0.16455,0.554 0.35882,0.98214 0.52082,1.14777 0.52329,5.59367 0.004,7.07134 -0.19643,0.55888 -0.35832,1.13946 -0.35977,1.29018 -0.001,0.15073 -0.11717,0.47494 -0.25715,0.72048 -0.13999,0.24554 -0.37695,0.7104 -0.52659,1.03304 -0.14963,0.32264 -0.37543,0.69954 -0.50178,0.83755 -0.12634,0.13801 -0.4306,0.55173 -0.67614,0.91937 -0.51564,0.77208 -1.84958,2.16609 -2.5,2.61258 -1.25795,0.86355 -1.78689,1.1808 -2.16908,1.301 -0.23111,0.0727 -0.70026,0.28163 -1.04256,0.46431 -0.34229,0.18268 -0.74408,0.33319 -0.89285,0.33445 -0.14878,10e-4 -0.7799,0.16199 -1.40249,0.35715 -1.05134,0.32956 -1.64643,0.35484 -8.35382,0.35484 -8.09295,0 -7.7106,0.0699 -7.06006,-1.29099 0.20049,-0.41942 0.49806,-1.12419 0.66127,-1.56616 0.48071,-1.30179 0.90165,-2.36736 1.20313,-3.0456 0.15522,-0.34919 0.33709,-0.85354 0.40417,-1.12078 0.21983,-0.87588 0.47937,-0.91632 6.50944,-1.0143 l 5.625,-0.0914 0.80357,-0.4796 c 1.0041,-0.59927 1.92441,-1.48435 2.48542,-2.39026 0.38015,-0.61387 0.4325,-0.91114 0.43728,-2.48307 0.005,-1.70707 -0.0205,-1.82897 -0.58365,-2.76785 -0.77248,-1.28791 -0.994,-1.52378 -2.15666,-2.29635 l -0.97833,-0.65008 -8.76783,-0.0552 c -7.34882,-0.0463 -8.80142,-0.0147 -8.97542,0.19493 -0.15059,0.18146 -0.2203,2.82012 -0.25385,9.60879 l -0.0462,9.35864 -3.86351,0.0481 c -2.99816,0.0373 -3.88002,-0.003 -3.93721,-0.17857 z m 22.39232,-27.29155 c 1.60378,-0.62594 2.68326,-1.44338 3.51525,-2.66193 0.36009,-0.5274 0.44416,-0.91114 0.51497,-2.35045 0.0777,-1.57965 0.0465,-1.80068 -0.38182,-2.70612 -0.63419,-1.34059 -1.18698,-1.95381 -2.3947,-2.65655 l -1.02388,-0.59576 -7.10915,-0.0574 c -5.31972,-0.043 -7.17382,-0.004 -7.36607,0.1558 -0.21314,0.17688 -0.25692,1.13257 -0.25692,5.60802 0,2.96714 0.0536,5.44837 0.11905,5.51385 0.0655,0.0655 3.11607,0.11905 6.7791,0.11905 6.30428,0 6.71049,-0.0197 7.60417,-0.36848 z"
         style="fill:#000000;fill-opacity:1;stroke:none;stroke-width:0.67491567;stroke-miterlimit:4;stroke-dasharray:none;stroke-opacity:1" />
      <path
         transform="scale(0.26458333)"
         inkscape:connector-curvature="0"
         id="path4571"
         d="m 416.39838,536.25257 c -1.83367,-0.18655 -4.167,-1.0577 -5.80357,-2.16674 -0.39286,-0.26623 -1.40144,-1.16366 -2.2413,-1.99428 -1.26294,-1.24906 -1.67054,-1.79975 -2.35698,-3.1844 -0.45648,-0.92079 -0.88268,-1.91524 -0.94711,-2.20988 -0.0644,-0.29464 -0.28231,-1.05804 -0.48417,-1.69643 -0.35448,-1.12104 -0.36582,-1.51167 -0.33175,-11.42857 0.0194,-5.64732 0.0779,-10.40848 0.12997,-10.58036 0.0858,-0.28313 0.40918,-0.3125 3.44138,-0.3125 2.40345,0 3.42853,0.0629 3.63706,0.22322 0.25842,0.19866 0.30713,1.29632 0.44287,9.98015 l 0.15251,9.75694 0.59242,1.13592 c 1.2419,2.38124 2.40455,3.36915 4.86956,4.1377 1.83999,0.57368 2.67688,0.59926 4.03131,0.12322 0.55887,-0.19643 1.13242,-0.35715 1.27455,-0.35715 0.29982,0 1.90563,-0.99795 2.43103,-1.51079 0.38253,-0.37339 0.83498,-1.06828 1.63239,-2.50706 l 0.49484,-0.89286 0.16816,-9.91072 c 0.11659,-6.87074 0.22876,-9.95095 0.36571,-10.0419 0.10865,-0.0722 1.78307,-0.13243 3.72093,-0.13393 3.50708,-0.003 3.52383,-8.8e-4 3.62052,0.39905 0.0534,0.22098 0.075,7.59375 0.048,16.38393 l -0.0491,15.98214 h -3.83928 -3.83929 l -0.0561,-0.88832 c -0.0737,-1.16733 -0.31405,-1.46916 -0.81895,-1.0283 -0.33105,0.28905 -0.65132,0.5012 -2.1607,1.43128 -0.42684,0.26302 -0.7344,0.39919 -2.14286,0.94872 -1.1887,0.4638 -3.49088,0.59538 -5.98214,0.34192 z"
         style="fill:#000000;fill-opacity:1;stroke:none;stroke-width:0.67491567;stroke-miterlimit:4;stroke-dasharray:none;stroke-opacity:1" />
      <path
         transform="scale(0.26458333)"
         inkscape:connector-curvature="0"
         id="path4573"
         d="m 454.34481,536.23751 c -4.69967,-0.39748 -8.96289,-2.76051 -11.90803,-6.6004 -0.65655,-0.85603 -1.31788,-1.8275 -1.46962,-2.15884 -0.15174,-0.33134 -0.34848,-0.72296 -0.43721,-0.87029 -0.82451,-1.36902 -1.62373,-5.23712 -1.62343,-7.85714 2.7e-4,-2.35463 1.13369,-7.03219 1.89329,-7.81356 0.11992,-0.12335 0.27477,-0.40304 0.34412,-0.62154 0.0693,-0.2185 0.2956,-0.63953 0.50277,-0.93562 0.63154,-0.90259 2.47128,-3.12909 2.5882,-3.1323 0.0605,-0.002 0.48129,-0.35148 0.93521,-0.77736 0.45392,-0.42589 1.29767,-1.03967 1.875,-1.36397 0.57733,-0.32431 1.17023,-0.68877 1.31755,-0.80992 0.14733,-0.12114 0.54911,-0.27849 0.89286,-0.34965 0.34375,-0.0712 0.94643,-0.27254 1.33929,-0.44751 0.39285,-0.17497 1.51785,-0.4156 2.5,-0.53474 0.98214,-0.11913 2.06696,-0.25443 2.41071,-0.30067 0.80898,-0.10881 5.07365,0.58427 5.58743,0.90805 0.2171,0.13681 0.59561,0.30835 0.84114,0.38119 0.24554,0.0728 0.63807,0.2821 0.8723,0.46502 0.23423,0.18292 0.57175,0.33258 0.75006,0.33258 0.1783,0 0.38844,0.10417 0.46698,0.23149 0.0786,0.12732 0.43905,0.40286 0.80113,0.6123 1.13329,0.65555 1.11613,0.76413 1.21668,-7.70136 l 0.0893,-7.51743 3.61754,0.0163 c 1.98964,0.009 3.65325,0.0521 3.6969,0.0957 0.0437,0.0436 0.10326,10.40237 0.13247,23.01937 l 0.0531,22.94 h -3.83928 -3.83929 l -0.0893,-9.55357 -0.0893,-9.55357 -0.69518,-1.42061 c -0.75712,-1.54716 -2.32385,-3.28216 -3.94187,-4.36524 -1.40443,-0.9401 -3.80945,-1.52725 -5.54152,-1.35287 -3.98353,0.40103 -6.88683,2.71975 -8.59846,6.86717 -0.45502,1.10253 -0.4606,4.82432 -0.008,5.62869 0.16563,0.29464 0.30163,0.64921 0.30224,0.78794 10e-4,0.3234 0.99854,1.89237 1.69537,2.66761 0.81036,0.90157 2.54598,2.15422 3.78104,2.7289 1.0191,0.47419 1.25877,0.51198 3.2473,0.51198 1.18085,0 2.3371,-0.0723 2.56944,-0.16062 0.73391,-0.27903 1.35036,-0.0436 1.56157,0.5964 0.10448,0.31656 0.3489,0.88733 0.54317,1.26836 0.19426,0.38104 0.35374,0.81643 0.35438,0.96754 7.2e-4,0.15111 0.16084,0.51582 0.35597,0.81046 0.19513,0.29464 0.35532,0.65744 0.35597,0.80622 7.1e-4,0.14877 0.16189,0.57036 0.35831,0.93685 0.47114,0.87904 0.46145,0.92797 -0.26923,1.35908 -1.58613,0.93584 -4.84791,1.48371 -7.49862,1.25952 z"
         style="fill:#000000;fill-opacity:1;stroke:none;stroke-width:0.67491567;stroke-miterlimit:4;stroke-dasharray:none;stroke-opacity:1" />
      <path
         transform="scale(0.26458333)"
         inkscape:connector-curvature="0"
         id="path4575"
         d="m 492.02338,536.14096 c -0.19643,-0.0496 -1,-0.24661 -1.78572,-0.43768 -1.54219,-0.37502 -3.07388,-0.95774 -3.92857,-1.49458 -1.5855,-0.99587 -2.02712,-1.3139 -2.67673,-1.92762 -0.39185,-0.3702 -0.76659,-0.6731 -0.83276,-0.6731 -0.0662,0 -0.52907,-0.50223 -1.02866,-1.11607 -0.49959,-0.61384 -1.0246,-1.2393 -1.1667,-1.38992 -0.40944,-0.434 -1.83004,-3.26725 -1.9747,-3.93838 -0.0722,-0.33506 -0.2487,-0.8388 -0.39216,-1.11942 -0.73196,-1.43178 -0.65561,-8.60937 0.10949,-10.29335 0.2008,-0.44196 0.36686,-1.01881 0.36902,-1.28189 0.002,-0.26307 0.11815,-0.59255 0.25777,-0.73216 0.13962,-0.13962 0.40078,-0.53666 0.58036,-0.88231 0.75415,-1.45159 1.1199,-2.05147 1.38488,-2.27138 0.1545,-0.12822 0.28091,-0.31195 0.28091,-0.40828 0,-0.28814 3.18407,-3.32782 3.89501,-3.71839 0.36221,-0.19898 0.97999,-0.55554 1.37284,-0.79236 0.90663,-0.54651 1.47809,-0.80609 1.77464,-0.80609 0.12845,0 0.58527,-0.15286 1.01517,-0.3397 0.42989,-0.18684 1.45846,-0.39732 2.28571,-0.46775 0.82724,-0.0704 1.75135,-0.20046 2.05357,-0.28897 0.8416,-0.24649 4.96223,0.33026 6.17449,0.86421 0.54017,0.23793 1.10267,0.50966 1.25,0.60385 0.14732,0.0942 0.54775,0.29909 0.88986,0.45532 0.3421,0.15624 0.81499,0.43587 1.05086,0.62141 0.51349,0.40391 1.37314,0.44363 1.51649,0.0701 0.0564,-0.147 0.14779,-2.65816 0.20307,-5.58035 0.0553,-2.9222 0.14618,-6.2171 0.20201,-7.32201 l 0.10151,-2.00893 h 3.44465 3.44465 l 0.10447,3.97321 c 0.0575,2.18527 0.14719,12.45448 0.19941,22.82047 0.0734,14.57338 0.0461,18.89606 -0.12031,19.0625 -0.22599,0.22599 -6.44448,0.31649 -7.23224,0.10526 l -0.39199,-0.10512 -0.0566,-9.66923 -0.0566,-9.66924 -0.5374,-0.98214 c -0.9214,-1.6839 -1.43432,-2.38947 -2.24551,-3.08887 -0.43133,-0.37189 -0.91152,-0.79332 -1.06708,-0.9365 -0.15556,-0.14319 -0.35127,-0.26034 -0.43492,-0.26034 -0.0836,0 -0.31797,-0.15012 -0.52073,-0.33359 -0.20276,-0.18347 -0.97133,-0.5219 -1.70794,-0.75208 -2.26655,-0.70824 -5.17478,-0.50934 -6.96429,0.4763 -0.24553,0.13524 -0.69659,0.36433 -1.00234,0.5091 -0.80211,0.37977 -3.2174,2.84831 -3.36484,3.43903 -0.0687,0.27529 -0.23622,0.62409 -0.37225,0.77512 -0.13602,0.15103 -0.42335,1.1013 -0.6385,2.11171 -0.38921,1.82784 -0.38954,1.84609 -0.065,3.61478 0.1794,0.97772 0.42799,1.95602 0.55243,2.17401 0.12444,0.21798 0.34055,0.64085 0.48025,0.9397 0.31972,0.68397 2.1286,2.5207 3.18388,3.2329 0.44034,0.29718 1.26882,0.76182 1.84107,1.03254 1.0146,0.47998 1.10087,0.49002 3.47182,0.40424 1.33725,-0.0484 2.63299,-0.14186 2.87941,-0.20774 0.40857,-0.10923 0.49906,-0.0203 1.02686,1.00888 0.31834,0.62077 0.57877,1.22717 0.57873,1.34757 -4e-5,0.12039 0.16035,0.482 0.35641,0.80357 0.19606,0.32157 0.35678,0.69009 0.35714,0.81894 3.6e-4,0.12885 0.20278,0.66151 0.44981,1.18368 0.51752,1.09395 0.47358,1.33588 -0.31965,1.75989 -1.32535,0.70844 -3.01656,1.05235 -5.48663,1.11571 -1.3259,0.034 -2.57143,0.0212 -2.76786,-0.0284 z"
         style="fill:#000000;fill-opacity:1;stroke:none;stroke-width:0.67491567;stroke-miterlimit:4;stroke-dasharray:none;stroke-opacity:1" />
      <path
         transform="scale(0.26458333)"
         inkscape:connector-curvature="0"
         id="path4577"
         d="m 520.29703,548.31005 c -0.15694,-0.34444 -0.1344,-0.68599 0.10312,-1.5625 0.16718,-0.61694 0.41522,-1.60385 0.5512,-2.19314 0.31102,-1.34785 0.82864,-2.96665 1.04206,-3.25893 0.0957,-0.13105 0.56248,-0.22321 1.13057,-0.22321 1.61204,0 3.78466,-0.81472 5.14288,-1.92855 0.55966,-0.45896 1.70295,-2.11265 1.70295,-2.46321 0,-0.11405 0.12053,-0.3074 0.26785,-0.42967 0.33764,-0.28021 0.3403,-0.72286 0.008,-1.36946 -0.1428,-0.27804 -0.50986,-1.06804 -0.81569,-1.75554 -0.30583,-0.6875 -0.63147,-1.37053 -0.72365,-1.51786 -0.0922,-0.14732 -0.21694,-0.38839 -0.27725,-0.53571 -0.33302,-0.81338 -2.10045,-4.71412 -2.99487,-6.60971 -0.25554,-0.54159 -0.46462,-1.07416 -0.46462,-1.18349 0,-0.10933 -0.11841,-0.29706 -0.26313,-0.41716 -0.14473,-0.12011 -0.31385,-0.4887 -0.37583,-0.81908 -0.062,-0.33038 -0.22649,-0.69514 -0.36557,-0.81057 -0.13909,-0.11543 -0.34051,-0.55783 -0.44759,-0.98311 -0.10709,-0.42527 -0.30631,-0.86585 -0.44272,-0.97906 -0.13641,-0.11321 -0.24802,-0.29009 -0.24802,-0.39307 0,-0.10298 -0.23107,-0.67573 -0.51349,-1.27278 -0.28242,-0.59705 -0.688,-1.48733 -0.90131,-1.9784 -0.2133,-0.49107 -0.54473,-1.19003 -0.73651,-1.55323 -0.19178,-0.36321 -0.34869,-0.77425 -0.34869,-0.91342 0,-0.13917 -0.14846,-0.44468 -0.32991,-0.67891 -0.18145,-0.23423 -0.38733,-0.6606 -0.4575,-0.94749 -0.0702,-0.28689 -0.28332,-0.7196 -0.47366,-0.96158 -0.19034,-0.24198 -0.34607,-0.54541 -0.34607,-0.67429 0,-0.12888 -0.2009,-0.61215 -0.44643,-1.07394 -0.24554,-0.46179 -0.44643,-0.9556 -0.44643,-1.09736 0,-0.14175 -0.16071,-0.46205 -0.35714,-0.71177 -0.19643,-0.24971 -0.35715,-0.55948 -0.35715,-0.68836 0,-0.12888 -0.20089,-0.61215 -0.44642,-1.07394 -0.24554,-0.46179 -0.44643,-0.93834 -0.44643,-1.05901 0,-0.12067 -0.12054,-0.31943 -0.26786,-0.4417 -0.14732,-0.12226 -0.26786,-0.37318 -0.26786,-0.55758 0,-0.31825 0.20818,-0.33528 4.10026,-0.33528 h 4.10026 l 0.18674,0.69349 c 0.1027,0.38141 0.29829,0.78606 0.43463,0.89922 0.13634,0.11315 0.29861,0.47605 0.36059,0.80643 0.062,0.33038 0.2311,0.69896 0.37582,0.81907 0.14472,0.12011 0.26313,0.30264 0.26313,0.40562 0,0.10298 0.23112,0.67573 0.51361,1.27278 0.28248,0.59704 0.56322,1.20607 0.62386,1.35339 0.0606,0.14733 0.18404,0.3884 0.27422,0.53572 0.0902,0.14732 0.36423,0.70982 0.60899,1.25 0.823,1.81634 2.72246,5.89233 3.18303,6.83036 0.24397,0.49689 0.42111,0.87121 0.90842,1.91964 0.25108,0.54018 0.66607,1.42526 0.92219,1.96685 0.25613,0.54159 0.46568,1.07416 0.46568,1.18349 0,0.10933 0.11996,0.29834 0.26658,0.42002 0.14661,0.12168 0.34836,0.51322 0.44832,0.87008 0.1,0.35687 0.42257,0.93009 0.71692,1.27384 0.51812,0.60509 0.54367,0.61396 0.80168,0.27837 0.14658,-0.19064 0.26829,-0.47189 0.27047,-0.625 0.002,-0.1531 0.16111,-0.47926 0.35317,-0.72479 0.19207,-0.24554 0.35099,-0.52564 0.35318,-0.62244 0.002,-0.0968 0.19508,-0.57895 0.42866,-1.07143 0.23357,-0.49248 0.51424,-1.09631 0.6237,-1.34185 0.10946,-0.24553 0.26681,-0.56696 0.34967,-0.71428 0.14844,-0.26393 0.71673,-1.46769 1.60173,-3.39286 0.24832,-0.54018 0.51928,-1.10268 0.60215,-1.25 0.0829,-0.14732 0.24021,-0.46875 0.34967,-0.71429 0.82873,-1.85897 1.10084,-2.44496 1.24384,-2.67857 0.0902,-0.14732 0.21358,-0.38839 0.27422,-0.53571 0.29249,-0.71054 1.18071,-2.61966 1.3293,-2.85715 0.0922,-0.14732 0.2172,-0.38839 0.27785,-0.53571 0.0606,-0.14732 0.34138,-0.75635 0.62386,-1.3534 0.28248,-0.59705 0.5136,-1.20997 0.5136,-1.36206 0,-0.15209 0.11643,-0.37315 0.25873,-0.49125 0.14229,-0.11809 0.35588,-0.50963 0.47462,-0.87007 0.11875,-0.36045 0.37904,-0.87635 0.57843,-1.14643 l 0.36253,-0.49108 h 3.77594 c 2.07677,0 3.82154,0.0456 3.87727,0.10133 0.1416,0.1416 -0.20819,1.3604 -0.4834,1.68439 -0.12515,0.14732 -0.32821,0.58928 -0.45126,0.98214 -0.12305,0.39286 -0.32516,0.83482 -0.44913,0.98214 -0.12397,0.14733 -0.27969,0.52347 -0.34605,0.83588 -0.0664,0.31241 -0.23084,0.65948 -0.36553,0.77127 -0.1347,0.11178 -0.30072,0.45885 -0.36894,0.77126 -0.0682,0.31241 -0.27428,0.75966 -0.45791,0.99389 -0.18363,0.23423 -0.33387,0.53974 -0.33387,0.67891 0,0.13917 -0.15556,0.55021 -0.34569,0.91342 -0.19013,0.3632 -0.55174,1.12243 -0.80357,1.68716 -0.25184,0.56473 -0.65877,1.44981 -0.90431,1.96685 -0.24554,0.51703 -0.44643,1.02952 -0.44643,1.13885 0,0.10933 -0.11052,0.29051 -0.2456,0.40261 -0.13508,0.11211 -0.34599,0.56239 -0.46868,1.00062 -0.1227,0.43823 -0.32844,0.88422 -0.45721,0.99109 -0.12877,0.10686 -0.28994,0.44991 -0.35816,0.76232 -0.0682,0.31241 -0.27427,0.75966 -0.45791,0.99388 -0.18362,0.23423 -0.33387,0.52815 -0.33387,0.65317 0,0.12501 -0.2116,0.65658 -0.47024,1.18127 -0.25863,0.52469 -0.61306,1.27541 -0.78763,1.66827 -0.17456,0.39286 -0.65561,1.4375 -1.06899,2.32143 -0.68545,1.46571 -1.00994,2.17772 -1.95318,4.28571 -0.65322,1.45983 -1.23335,2.71974 -1.93227,4.19643 -0.39512,0.83482 -0.97456,2.08036 -1.28765,2.76786 -1.03383,2.2702 -1.99621,3.93137 -3.41396,5.89285 -0.56942,0.78781 -3.4749,2.97722 -4.71108,3.55001 -0.58928,0.27305 -1.39285,0.65874 -1.78571,0.85708 -0.77879,0.39318 -4.20217,0.84513 -6.47704,0.85509 -1.2099,0.005 -1.31217,-0.0244 -1.49931,-0.43511 z"
         style="fill:#000000;fill-opacity:1;stroke:none;stroke-width:0.67491567;stroke-miterlimit:4;stroke-dasharray:none;stroke-opacity:1" />
    </g>
    <text
       xml:space="preserve"
       style="font-style:normal;font-weight:normal;font-size:13.94264889px;line-height:1.25;font-family:sans-serif;letter-spacing:0px;word-spacing:0px;fill:#000000;fill-opacity:1;stroke:none;stroke-width:0.34856623"
       x="142.68666"
       y="66.89637"
       id="text4589"
       transform="scale(0.97495934,1.0256838)"><tspan
         sodipodi:role="line"
         id="tspan4587"
         x="142.68666"
         y="66.89637"
         style="fill:#000000;fill-opacity:1;stroke-width:0.34856623">EMPOWERING YOUR FINANCIAL JOURNEY!</tspan></text>
  </g>
</svg>
