<?xml version="1.0" encoding="UTF-8" standalone="no"?>
<!-- Created with Inkscape (http://www.inkscape.org/) -->

<svg
   xmlns:dc="http://purl.org/dc/elements/1.1/"
   xmlns:cc="http://creativecommons.org/ns#"
   xmlns:rdf="http://www.w3.org/1999/02/22-rdf-syntax-ns#"
   xmlns:svg="http://www.w3.org/2000/svg"
   xmlns="http://www.w3.org/2000/svg"
   xmlns:sodipodi="http://sodipodi.sourceforge.net/DTD/sodipodi-0.dtd"
   xmlns:inkscape="http://www.inkscape.org/namespaces/inkscape"
   width="400px"
   height="400px"
   viewBox="0 0 400 400"
   version="1.1"
   id="SVGRoot"
   inkscape:version="0.92.4 (5da689c313, 2019-01-14)"
   sodipodi:docname="logoicon.svg">
  <defs
     id="defs5140" />
  <sodipodi:namedview
     id="base"
     pagecolor="#ffffff"
     bordercolor="#666666"
     borderopacity="1.0"
     inkscape:pageopacity="0.0"
     inkscape:pageshadow="2"
     inkscape:zoom="1.28"
     inkscape:cx="200"
     inkscape:cy="200"
     inkscape:document-units="px"
     inkscape:current-layer="layer1"
     showgrid="false"
     inkscape:window-width="1920"
     inkscape:window-height="991"
     inkscape:window-x="-9"
     inkscape:window-y="-9"
     inkscape:window-maximized="1" />
  <metadata
     id="metadata5143">
    <rdf:RDF>
      <cc:Work
         rdf:about="">
        <dc:format>image/svg+xml</dc:format>
        <dc:type
           rdf:resource="http://purl.org/dc/dcmitype/StillImage" />
        <dc:title />
      </cc:Work>
    </rdf:RDF>
  </metadata>
  <g
     inkscape:label="Layer 1"
     inkscape:groupmode="layer"
     id="layer1">
    <circle
       style="fill:#ffffff;fill-opacity:1;fill-rule:evenodd;stroke:#000000;stroke-width:4.27638769;stroke-miterlimit:4;stroke-dasharray:none;stroke-opacity:0"
       id="path829"
       cx="200"
       cy="201.88977"
       r="193.95528" />
    <g
       transform="matrix(9.700985,0,0,9.700985,30.198822,-1173.8084)"
       id="g4612">
      <path
         transform="scale(0.26458333)"
         inkscape:connector-curvature="0"
         id="path4531"
         d="M 31.650826,573.13615 C 20.689483,570.81735 11.544851,564.70229 6.0291835,556.00282 2.8613194,551.00637 2.0541753,549.22554 0.77281241,544.4055 -2.0768241,533.68618 -0.35024085,522.27869 5.5551184,512.80894 10.522356,504.84356 18.348234,498.93138 27.862753,495.95631 c 4.073981,-1.27388 5.253246,-1.4183 11.364217,-1.39174 9.428764,0.041 14.907725,1.65336 22.286091,6.55848 20.031643,13.31701 23.337873,42.40426 6.836677,60.14708 -9.119354,9.80554 -23.879258,14.57792 -36.698912,11.86602 z m 16.489087,-10.75671 c 21.137383,-6.73439 27.922188,-34.02233 12.291911,-49.43703 -3.861813,-3.80855 -7.429929,-6.05224 -12.20004,-7.67156 -4.551239,-1.54503 -13.45839,-1.54503 -18.009628,0 -4.921499,1.67072 -8.6088,3.99717 -12.272304,7.74305 -6.246673,6.38712 -8.2466664,11.46362 -8.2329819,20.89741 0.00718,4.95183 0.2182713,6.67927 1.1535549,9.4401 1.798461,5.30881 5.952368,11.05122 10.426337,14.41352 7.483402,5.62395 18.000261,7.43186 26.843151,4.61451 z" />
      <path
         transform="scale(0.26458333)"
         inkscape:connector-curvature="0"
         id="path4533"
         d="m 36.827857,554.53747 c -0.355072,-0.14328 -0.631345,-1.12515 -0.631345,-2.2438 0,-2.15293 -0.08685,-2.22186 -4.426647,-3.51324 -2.979597,-0.88664 -3.308039,-1.41781 -2.604436,-4.21207 0.654321,-2.59855 1.106929,-2.76484 4.3811,-1.60964 1.856462,0.65499 4.235268,0.98131 6.216548,0.85275 1.146613,-0.0744 2.999427,-1.9574 2.999427,-3.0483 0,-1.44254 -1.961169,-3.01008 -5.825002,-4.65585 -5.572773,-2.37369 -7.812058,-5.04197 -7.812058,-9.30865 0,-3.09114 1.44944,-5.40138 4.463373,-7.11411 2.914164,-1.65603 3.617848,-2.49339 3.617848,-4.30507 0,-1.34184 0.121473,-1.4187 2.242354,-1.4187 2.22093,0 2.243852,0.0179 2.399112,1.86928 0.153337,1.82848 0.226998,1.8899 3.375129,2.81414 l 3.218371,0.94487 -0.275442,2.05357 c -0.410634,3.06151 -1.261236,3.69696 -3.626045,2.70888 -3.889121,-1.62498 -8.343632,-0.69929 -8.343632,1.73389 0,1.7213 0.874373,2.45894 5.555839,4.68702 4.4073,2.09759 5.665238,3.16113 7.126292,6.02503 2.112842,4.14152 0.319879,8.81328 -4.348373,11.33016 -3.038734,1.63833 -3.265351,1.9349 -3.275261,4.28632 -0.0062,1.47275 -0.232141,1.89527 -1.144156,2.13968 -1.311557,0.35148 -2.384974,0.3462 -3.282996,-0.0162 z" />
      <path
         transform="scale(0.26458333)"
         inkscape:connector-curvature="0"
         id="path4535"
         d="m 81.344572,512.3193 c -0.734786,-1.45841 -1.761394,-3.25495 -2.281352,-3.99231 -0.519957,-0.73737 -0.945377,-1.58968 -0.945377,-1.89404 0,-0.8288 50.082027,-0.77694 50.911687,0.0527 0.79829,0.79829 0.79829,7.0809 0,7.87919 -0.45356,0.45356 -6.36207,0.6061 -23.47754,0.6061 H 82.680546 Z" />
      <path
         transform="scale(0.26458333)"
         inkscape:connector-curvature="0"
         id="path4537"
         d="m 86.174932,526.46143 c -0.01327,-0.0694 -0.550548,-2.11501 -1.193947,-4.54569 l -1.169816,-4.41941 h 24.601711 c 28.35404,0 26.27351,-0.38511 26.27351,4.86325 0,1.67229 -0.27003,3.28596 -0.6061,3.62203 -0.45414,0.45414 -6.53232,0.60609 -24.24366,0.60609 -13.000661,0 -23.648426,-0.0568 -23.661698,-0.12627 z" />
      <path
         transform="scale(0.26458333)"
         inkscape:connector-curvature="0"
         id="path4539"
         d="m 86.704139,533.91131 v -4.79823 h 20.343211 c 23.88517,0 22.58827,-0.27549 22.58827,4.79823 0,5.07371 1.2969,4.79822 -22.58827,4.79822 H 86.704139 Z" />
      <path
         transform="scale(0.26458333)"
         inkscape:connector-curvature="0"
         id="path4541"
         d="m 84.338358,549.18986 c 0.152548,-0.62503 0.690434,-2.72741 1.195301,-4.67195 l 0.917942,-3.53554 h 16.812589 c 14.39511,0 16.88139,0.10894 17.29112,0.75762 0.2632,0.41669 0.48203,2.28379 0.48628,4.14911 0.006,2.84086 -0.15088,3.47638 -0.96921,3.91434 -0.61957,0.33158 -7.38499,0.52284 -18.49417,0.52284 H 84.060997 Z" />
      <path
         transform="scale(0.26458333)"
         inkscape:connector-curvature="0"
         id="path4543"
         d="m 78.117843,561.62009 c 0,-0.17762 0.629639,-1.37086 1.399198,-2.65165 0.769559,-1.28079 1.844024,-3.18102 2.387699,-4.22274 l 0.988502,-1.89403 h 20.557198 c 23.5929,0 22.14457,-0.29455 22.14457,4.50348 0,4.89444 1.64789,4.58789 -24.66224,4.58789 -12.548208,0 -22.814927,-0.14533 -22.814927,-0.32295 z" />
      <path
         transform="scale(0.26458333)"
         inkscape:connector-curvature="0"
         id="path4545"
         d="m 66.501088,573.12341 c 0,-0.24001 0.852317,-1.0273 1.894036,-1.74952 1.04172,-0.72223 3.136336,-2.57141 4.654702,-4.1093 l 2.760667,-2.79617 h 19.763216 c 22.772511,0 21.435011,-0.29222 21.435011,4.68309 0,4.66683 1.54698,4.40828 -26.376353,4.40828 -13.272203,0 -24.131279,-0.19637 -24.131279,-0.43638 z" />
    </g>
  </g>
</svg>
